<svg width="187" height="35" viewBox="0 0 187 35" fill="none" xmlns="http://www.w3.org/2000/svg">
<path d="M17.491 35C13.4543 34.9973 9.54258 33.5994 6.41849 31.0431C3.29439 28.4867 1.14998 24.929 0.348489 20.9727C-0.453002 17.0164 0.137706 12.9046 2.02055 9.3339C3.9034 5.76321 6.96262 2.95311 10.68 1.37961C14.956 -0.426771 19.7745 -0.460534 24.0753 1.28575C28.3762 3.03202 31.8072 6.4153 33.6136 10.6913C35.42 14.9673 35.4538 19.7857 33.7075 24.0866C31.9612 28.3875 28.5779 31.8185 24.3019 33.6249C22.1473 34.5368 19.8307 35.0045 17.491 35ZM15.9733 8.91031C15.8281 8.91956 15.6924 8.98575 15.5958 9.09449C15.4992 9.20322 15.4494 9.34571 15.4572 9.49097V24.6547C15.4489 24.8004 15.4985 24.9435 15.5951 25.0529C15.6917 25.1623 15.8276 25.2292 15.9733 25.2389H19.0627C19.2083 25.2292 19.3442 25.1623 19.4408 25.0529C19.5374 24.9435 19.587 24.8004 19.5787 24.6547V9.49454C19.587 9.34881 19.5374 9.2057 19.4408 9.0963C19.3442 8.9869 19.2083 8.92006 19.0627 8.91031H15.9733ZM21.6253 14.9389C21.4885 14.9391 21.3574 14.9935 21.2607 15.0902C21.1639 15.187 21.1095 15.3181 21.1093 15.4549V24.7238C21.1095 24.8606 21.1639 24.9917 21.2607 25.0884C21.3574 25.1851 21.4886 25.2395 21.6253 25.2396H24.715C24.8518 25.2395 24.9829 25.1851 25.0796 25.0884C25.1764 24.9917 25.2308 24.8606 25.231 24.7238V15.454C25.2306 15.3174 25.1761 15.1864 25.0793 15.0899C24.9826 14.9934 24.8516 14.9391 24.715 14.9389H21.6253ZM10.3209 16.4836C10.1844 16.4848 10.0539 16.5395 9.95734 16.636C9.86082 16.7325 9.80608 16.8631 9.80492 16.9996V24.7238C9.80509 24.8606 9.85952 24.9917 9.95626 25.0884C10.053 25.1851 10.1841 25.2395 10.3209 25.2396H13.4106C13.5473 25.2395 13.6785 25.1851 13.7752 25.0884C13.872 24.9917 13.9264 24.8606 13.9266 24.7238V16.9987C13.9264 16.8619 13.872 16.7308 13.7752 16.634C13.6785 16.5373 13.5474 16.4829 13.4106 16.4827L10.3209 16.4836Z" fill="#704FC0"/>
<path d="M48.0582 24.2735C47.0317 24.2883 46.0211 24.0188 45.1382 23.4949C44.2831 22.9864 43.5837 22.2533 43.1159 21.3753C42.6286 20.4644 42.3793 19.4451 42.3912 18.4121C42.3793 17.3791 42.6286 16.3598 43.1159 15.4488C43.5837 14.5708 44.2831 13.8378 45.1382 13.3293C46.0211 12.8054 47.0317 12.5359 48.0582 12.5507C49.0848 12.5359 50.0954 12.8054 50.9782 13.3293C51.8333 13.8378 52.5328 14.5708 53.0006 15.4488C53.4878 16.3598 53.7369 17.3791 53.7248 18.4121C53.7367 19.4451 53.4875 20.4644 53.0002 21.3753C52.5325 22.2533 51.8332 22.9863 50.9782 23.4949C50.0954 24.0188 49.0848 24.2883 48.0582 24.2735ZM48.0582 22.608C48.7232 22.6114 49.3769 22.4358 49.9507 22.0998C50.5444 21.7512 51.031 21.2461 51.3572 20.6398C51.7227 19.9552 51.9052 19.1879 51.887 18.4121C51.9052 17.6362 51.7227 16.8688 51.3572 16.1842C51.0312 15.5779 50.5449 15.0729 49.9513 14.7242C49.3775 14.3881 48.7239 14.2126 48.0589 14.216C47.3906 14.2134 46.7337 14.3889 46.1556 14.7242C45.5572 15.0703 45.0668 15.5757 44.7388 16.1842C44.3733 16.8687 44.1908 17.6361 44.209 18.4119C44.1902 19.1876 44.3721 19.955 44.737 20.6398C45.0652 21.2483 45.556 21.7538 46.1547 22.0998C46.7328 22.4351 47.3899 22.6105 48.0582 22.608ZM55.6498 12.8966H57.4018V14.6702H57.4883C57.7237 14.0413 58.1661 13.5111 58.7428 13.167C59.3199 12.7835 59.9965 12.5768 60.6894 12.5723C61.1317 12.5615 61.5721 12.6349 61.9871 12.7885V14.7784C61.5022 14.5422 60.9685 14.4235 60.4292 14.432C59.9039 14.4293 59.3905 14.5879 58.9581 14.8862C58.5043 15.1971 58.1363 15.6173 57.8882 16.1082C57.6214 16.6187 57.4836 17.1868 57.487 17.7628V23.9275H55.6498V12.8966ZM68.0654 28.9455C66.7677 28.9455 65.697 28.6427 64.8534 28.0372C64.0691 27.5085 63.4743 26.7432 63.1555 25.8527L64.8211 25.1395C65.0611 25.7675 65.4875 26.3071 66.043 26.6859C66.6386 27.0903 67.3457 27.2983 68.0654 27.2806C69.2046 27.2806 70.0878 26.949 70.715 26.2856C71.3422 25.6223 71.6559 24.685 71.6559 23.4739V22.2404H71.5694C71.1879 22.8219 70.6626 23.295 70.0445 23.6139C69.3545 23.9754 68.5847 24.1576 67.8059 24.1438C66.8847 24.1523 65.9803 23.8971 65.1995 23.4082C64.4011 22.9052 63.754 22.1952 63.327 21.3537C62.854 20.4232 62.6167 19.3908 62.636 18.3472C62.6192 17.3074 62.8564 16.2791 63.327 15.3517C63.7511 14.5058 64.3979 13.7916 65.1978 13.286C65.9785 12.7971 66.883 12.5419 67.8041 12.5505C68.583 12.5366 69.3527 12.7188 70.0427 13.0803C70.6652 13.4027 71.1913 13.884 71.5676 14.4754H71.6541V12.8966H73.4061V23.4949C73.4061 25.2684 72.9157 26.6203 71.9349 27.5504C70.9542 28.4804 69.6641 28.9454 68.0647 28.9453L68.0654 28.9455ZM68.0654 22.4785C68.702 22.4857 69.3278 22.3132 69.8709 21.9809C70.4262 21.6335 70.8752 21.14 71.1686 20.5544C71.5079 19.8693 71.6749 19.1119 71.6552 18.3477C71.6764 17.5766 71.5094 16.812 71.1686 16.12C70.8771 15.5356 70.4275 15.0448 69.8709 14.7032C69.3255 14.3776 68.7006 14.2092 68.0654 14.2166C67.4253 14.2103 66.7961 14.3826 66.2485 14.7142C65.6883 15.0589 65.2351 15.5529 64.9399 16.1407C64.6006 16.8258 64.4335 17.5832 64.4533 18.3474C64.4345 19.1148 64.6015 19.8754 64.9399 20.5644C65.231 21.1551 65.6851 21.6501 66.2485 21.991C66.7981 22.3162 67.4262 22.4849 68.0647 22.4787L68.0654 22.4785ZM79.5503 24.2737C78.8023 24.2868 78.0616 24.1238 77.3882 23.7978C76.7847 23.5084 76.2748 23.0549 75.9171 22.4892C75.5673 21.9207 75.3871 21.2641 75.3979 20.5967C75.3758 20.0673 75.4846 19.5406 75.7148 19.0634C75.9449 18.5861 76.2892 18.173 76.7173 17.8606C77.5968 17.2046 78.7071 16.8765 80.0481 16.8765C80.6714 16.8716 81.2928 16.9443 81.8982 17.0927C82.3564 17.1935 82.7974 17.3611 83.2068 17.5902V16.9198C83.2209 16.546 83.1504 16.1739 83.0006 15.8312C82.8509 15.4886 82.6256 15.1841 82.3417 14.9406C81.7306 14.4309 80.9526 14.1651 80.1573 14.1944C79.5637 14.1884 78.9775 14.3261 78.4485 14.5956C77.9444 14.8489 77.5184 15.234 77.2157 15.7101L75.8315 14.6718C76.2736 14.0002 76.8905 13.4618 77.6158 13.1146C78.4001 12.7336 79.2626 12.541 80.1346 12.5522C81.6342 12.5522 82.813 12.9451 83.6709 13.7309C84.5288 14.5167 84.9578 15.5874 84.9579 16.9429V23.9275H83.2059V22.3485H83.1194C82.767 22.9162 82.2761 23.385 81.6929 23.7111C81.0431 24.0903 80.302 24.2848 79.5497 24.2735L79.5503 24.2737ZM79.7233 22.6514C80.3328 22.6543 80.9314 22.4897 81.4537 22.1755C81.9803 21.8652 82.4195 21.4261 82.7298 20.8994C83.0459 20.37 83.2105 19.764 83.2057 19.1474C82.8118 18.8954 82.3814 18.7057 81.9296 18.5851C81.4087 18.4387 80.87 18.3659 80.3289 18.3688C79.3196 18.3688 78.559 18.5779 78.0471 18.9961C77.8015 19.1879 77.6041 19.4345 77.4708 19.7161C77.3374 19.9978 77.2718 20.3068 77.2792 20.6184C77.2715 20.9006 77.3301 21.1807 77.4503 21.4362C77.5705 21.6917 77.749 21.9155 77.9713 22.0895C78.4709 22.4769 79.091 22.6759 79.7226 22.6514H79.7233ZM87.5097 12.8968H89.2617V14.5191H89.3482C89.6934 13.9295 90.1948 13.4467 90.797 13.124C91.4398 12.7474 92.1716 12.5496 92.9166 12.5509C94.2432 12.5509 95.2561 12.9366 95.9554 13.708C96.6547 14.4794 97.0044 15.5283 97.0044 16.8549V23.9275H95.1659V17.136C95.1659 16.1123 94.9207 15.3697 94.4303 14.9083C93.9399 14.4469 93.2695 14.2162 92.4189 14.2162C91.8496 14.2093 91.2929 14.3836 90.8291 14.7137C90.3581 15.0482 89.9818 15.4991 89.7369 16.0224C89.48 16.5514 89.3468 17.132 89.3475 17.7202V23.9275H87.509L87.5097 12.8968ZM100.725 10.8638C100.552 10.8657 100.38 10.8322 100.22 10.7653C100.06 10.6983 99.9153 10.5993 99.7951 10.4744C99.6702 10.3541 99.5712 10.2096 99.5042 10.0497C99.4372 9.88974 99.4037 9.71779 99.4057 9.54442C99.403 9.37252 99.4362 9.20196 99.5033 9.04367C99.5704 8.88537 99.6697 8.74283 99.7951 8.62517C99.9168 8.50295 100.062 8.40642 100.222 8.34132C100.381 8.27623 100.553 8.2439 100.725 8.24624C100.898 8.2439 101.069 8.27623 101.228 8.34132C101.388 8.40642 101.533 8.50295 101.655 8.62517C101.78 8.74276 101.88 8.88525 101.947 9.04351C102.014 9.20177 102.047 9.37231 102.045 9.5442C102.047 9.71668 102.015 9.88788 101.95 10.0476C101.885 10.2074 101.788 10.3524 101.666 10.4741C101.545 10.6011 101.398 10.7013 101.236 10.7683C101.074 10.8354 100.9 10.8678 100.724 10.8635L100.725 10.8638ZM99.8158 12.8966H101.633V23.9275H99.8158V12.8966ZM103.968 22.3476L110.479 14.5612H104.162V12.8957H112.728V14.4765L106.197 22.2629H112.902V23.9275H103.969L103.968 22.3476ZM119.758 24.2726C118.761 24.2875 117.78 24.0251 116.924 23.5147C116.091 23.0135 115.414 22.291 114.967 21.4275C114.489 20.5027 114.248 19.4743 114.264 18.4337C114.253 17.4151 114.479 16.4078 114.924 15.4914C115.343 14.6217 115.989 13.8817 116.795 13.3502C117.631 12.8084 118.61 12.5296 119.607 12.55C120.593 12.5253 121.567 12.7764 122.418 13.2751C123.206 13.753 123.841 14.4475 124.246 15.2759C124.684 16.1857 124.903 17.186 124.884 18.1959C124.887 18.3854 124.865 18.5745 124.819 18.7582H116.103C116.121 19.505 116.329 20.2348 116.709 20.8778C117.04 21.4272 117.515 21.8758 118.083 22.1755C118.619 22.4593 119.217 22.6078 119.824 22.6082C121.237 22.6082 122.325 21.9449 123.09 20.6184L124.647 21.3762C124.198 22.2402 123.531 22.9711 122.711 23.4958C121.822 24.0348 120.797 24.3049 119.758 24.2735L119.758 24.2726ZM122.937 17.2441C122.902 16.7611 122.77 16.2902 122.548 15.8599C122.298 15.3776 121.92 14.9735 121.456 14.6919C120.891 14.3567 120.241 14.1915 119.585 14.216C118.772 14.1959 117.984 14.4948 117.39 15.0487C116.773 15.6366 116.36 16.4056 116.211 17.2441H122.937ZM133.319 24.2735C132.151 24.2735 131.192 23.931 130.443 23.2461C130.071 22.9057 129.778 22.4885 129.584 22.0235C129.39 21.5585 129.299 21.0568 129.318 20.5533C129.305 19.8595 129.509 19.179 129.902 18.6067C130.304 18.0336 130.859 17.5842 131.503 17.3089C132.212 16.9997 132.978 16.8448 133.752 16.8547C134.748 16.8294 135.74 16.9983 136.672 17.352V16.8765C136.68 16.5953 136.623 16.316 136.504 16.0607C136.386 15.8053 136.21 15.581 135.99 15.4054C135.467 15.0078 134.819 14.8086 134.163 14.843C133.641 14.8436 133.126 14.9657 132.659 15.1996C132.196 15.4224 131.786 15.7434 131.459 16.1405L129.642 14.7139C130.172 14.0245 130.863 13.475 131.654 13.1133C132.481 12.734 133.382 12.542 134.292 12.5509C135.979 12.5509 137.263 12.9402 138.142 13.7189C139.022 14.4976 139.462 15.6367 139.462 17.1362V23.9275H136.672V22.8028H136.499C136.149 23.2506 135.701 23.613 135.19 23.8627C134.608 24.146 133.967 24.2868 133.319 24.2735ZM133.99 22.0668C134.354 22.0841 134.717 22.0225 135.055 21.8862C135.393 21.7499 135.697 21.5422 135.947 21.2773C136.42 20.778 136.68 20.1146 136.672 19.4272C135.949 19.0844 135.158 18.9076 134.357 18.9096C132.886 18.9096 132.151 19.4576 132.151 20.5535C132.144 20.7594 132.184 20.9642 132.266 21.1531C132.348 21.342 132.471 21.5102 132.627 21.6457C133.013 21.95 133.499 22.1002 133.99 22.0674V22.0668ZM147.053 28.9448C145.655 28.9448 144.494 28.6312 143.571 28.004C142.724 27.4701 142.072 26.6775 141.711 25.7437L144.372 24.6631C144.588 25.1948 144.959 25.6487 145.438 25.9652C145.917 26.2817 146.48 26.4461 147.054 26.4367C147.446 26.4561 147.839 26.393 148.206 26.2515C148.573 26.1099 148.906 25.8931 149.184 25.6149C149.71 25.067 149.974 24.2883 149.974 23.2789V22.4134H149.801C149.455 22.9033 148.985 23.2917 148.438 23.5381C147.833 23.8066 147.176 23.9395 146.514 23.9275C145.618 23.931 144.739 23.6878 143.972 23.2245C143.174 22.7432 142.521 22.0559 142.08 21.2347C141.588 20.3142 141.342 19.2825 141.365 18.2391C141.341 17.1959 141.587 16.1643 142.078 15.2435C142.519 14.4224 143.172 13.735 143.97 13.2537C144.737 12.7905 145.616 12.5472 146.512 12.5507C147.174 12.5386 147.831 12.6715 148.437 12.9401C148.983 13.1866 149.454 13.575 149.799 14.0648H149.972V12.8968H152.697V23.1697C152.724 24.235 152.487 25.2903 152.005 26.241C151.562 27.0881 150.877 27.7844 150.037 28.2418C149.119 28.7268 148.092 28.969 147.054 28.9453L147.053 28.9448ZM147.097 21.353C147.474 21.3591 147.849 21.2884 148.199 21.1453C148.548 21.0021 148.865 20.7895 149.13 20.5203C149.692 19.9651 149.973 19.2045 149.973 18.2384C149.973 17.2428 149.696 16.475 149.14 15.935C148.872 15.6696 148.552 15.4611 148.201 15.3217C147.85 15.1824 147.474 15.1151 147.096 15.1238C146.716 15.116 146.339 15.1848 145.986 15.3259C145.633 15.4671 145.312 15.6779 145.042 15.9457C144.479 16.4936 144.198 17.2578 144.198 18.2384C144.198 19.2191 144.48 19.9835 145.042 20.5316C145.312 20.7995 145.633 21.0102 145.986 21.1515C146.339 21.2927 146.717 21.3615 147.097 21.3537L147.097 21.353ZM160.636 24.273C159.57 24.2915 158.517 24.0265 157.587 23.5051C156.711 23.0116 155.988 22.2855 155.499 21.4072C154.994 20.4906 154.737 19.4581 154.753 18.4116C154.74 17.3689 154.997 16.3405 155.499 15.4268C155.986 14.5438 156.709 13.8136 157.587 13.3179C158.517 12.7967 159.57 12.532 160.637 12.5507C161.696 12.5337 162.741 12.7983 163.665 13.3175C164.543 13.8131 165.265 14.5433 165.752 15.4263C166.254 16.3401 166.512 17.3685 166.498 18.4112C166.515 19.4583 166.257 20.4916 165.752 21.4088C165.263 22.2871 164.54 23.0131 163.665 23.5067C162.741 24.0259 161.696 24.2905 160.637 24.2735L160.636 24.273ZM160.636 21.656C161.166 21.6605 161.688 21.5263 162.15 21.2666C162.616 21.0027 162.998 20.6132 163.253 20.1425C163.538 19.6108 163.679 19.0147 163.664 18.4121C163.677 17.8165 163.536 17.2278 163.253 16.7033C162.998 16.2324 162.616 15.8426 162.15 15.5786C161.688 15.3191 161.166 15.1851 160.637 15.1898C160.107 15.1852 159.585 15.3195 159.123 15.5792C158.655 15.8448 158.269 16.2339 158.008 16.704C157.719 17.2262 157.573 17.8159 157.586 18.4128C157.575 19.0127 157.72 19.6053 158.009 20.1315C158.267 20.6062 158.653 20.9994 159.123 21.267C159.585 21.5267 160.107 21.6609 160.637 21.6564L160.636 21.656ZM168.444 12.896H171.105V14.3671H171.278C171.573 13.8262 172.015 13.3799 172.554 13.0801C173.13 12.7413 173.788 12.5656 174.457 12.5719C174.929 12.5662 175.398 12.6468 175.841 12.8097V15.643C175.519 15.5201 175.191 15.4154 174.857 15.3294C174.577 15.2629 174.29 15.2302 174.003 15.232C173.623 15.2169 173.245 15.2913 172.9 15.4491C172.554 15.6068 172.25 15.8436 172.013 16.1403C171.506 16.7946 171.246 17.6061 171.277 18.433V23.9275H168.445L168.444 12.896ZM180.708 24.2728C179.54 24.2728 178.581 23.9304 177.831 23.2455C177.46 22.905 177.167 22.4878 176.972 22.0228C176.778 21.5578 176.687 21.0562 176.706 20.5526C176.694 19.8588 176.898 19.1783 177.29 18.606C177.693 18.0329 178.247 17.5835 178.891 17.3083C179.6 16.999 180.367 16.8442 181.14 16.854C182.137 16.8289 183.129 16.998 184.061 17.352V16.8765C184.069 16.5953 184.012 16.316 183.893 16.0607C183.775 15.8053 183.599 15.581 183.379 15.4054C182.856 15.0078 182.208 14.8086 181.552 14.843C181.03 14.8436 180.515 14.9657 180.048 15.1996C179.585 15.4224 179.175 15.7434 178.848 16.1405L177.031 14.7139C177.561 14.0245 178.252 13.475 179.043 13.1133C179.87 12.734 180.771 12.542 181.681 12.5509C183.368 12.5509 184.652 12.9402 185.531 13.7189C186.411 14.4976 186.851 15.6367 186.851 17.1362V23.9275H184.061V22.8028H183.888C183.537 23.2506 183.09 23.6131 182.579 23.8627C181.997 24.1459 181.356 24.2868 180.708 24.2735L180.708 24.2728ZM181.378 22.0661C181.742 22.0834 182.106 22.0218 182.444 21.8855C182.781 21.7493 183.086 21.5415 183.336 21.2766C183.808 20.7774 184.068 20.1139 184.061 19.4265C183.337 19.084 182.547 18.9074 181.746 18.9096C180.275 18.9096 179.54 19.4576 179.54 20.5535C179.533 20.7594 179.573 20.9642 179.655 21.1531C179.737 21.342 179.86 21.5102 180.016 21.6457C180.402 21.95 180.888 22.1003 181.379 22.0674L181.378 22.0661Z" fill="#704FC0"/>
</svg>
