<svg width="13" height="14" viewBox="0 0 13 14" fill="none" xmlns="http://www.w3.org/2000/svg">
<path d="M6.14957 6.73982C6.8161 6.73982 7.46766 6.54216 8.02185 6.17184C8.57604 5.80153 9.00797 5.27519 9.26302 4.65938C9.51806 4.04358 9.58476 3.36597 9.45468 2.71226C9.32461 2.05854 9.0036 1.45808 8.53225 0.986816C8.0609 0.51555 7.46038 0.194644 6.80665 0.0646815C6.15291 -0.0652805 5.47531 0.00153882 4.85955 0.25669C4.24379 0.51184 3.71753 0.943862 3.34731 1.49812C2.97709 2.05237 2.77955 2.70397 2.77966 3.3705C2.7806 4.26391 3.13596 5.12046 3.76776 5.75214C4.39955 6.38382 5.25616 6.73904 6.14957 6.73982Z" fill="#704FC0"/>
<path d="M10.5579 9.11834C9.70393 8.24245 8.60828 7.641 7.41088 7.39081C6.21347 7.14061 4.96866 7.25304 3.83546 7.71373C2.70225 8.17441 1.7321 8.96244 1.04892 9.97716C0.365742 10.9919 0.000552739 12.1872 0 13.4105C0 13.5669 0.0621247 13.7168 0.172707 13.8274C0.28329 13.938 0.433273 14.0001 0.58966 14.0001H11.7107C11.867 14.0001 12.017 13.938 12.1276 13.8274C12.2382 13.7168 12.3003 13.5669 12.3003 13.4105C12.3026 12.7852 12.2061 12.1635 12.0143 11.5684C11.7288 10.6483 11.2297 9.80875 10.5579 9.11834Z" fill="#704FC0"/>
</svg>
